<?xml version="1.0" encoding="UTF-8"?>
<!DOCTYPE svg PUBLIC "-//W3C//DTD SVG 1.1//EN" "http://www.w3.org/Graphics/SVG/1.1/DTD/svg11.dtd">
<!-- Creator: CorelDRAW 2019 (64 Bit) -->
<svg xmlns="http://www.w3.org/2000/svg" xml:space="preserve" width="2.8526mm" height="2.7093mm" version="1.1" style="shape-rendering:geometricPrecision; text-rendering:geometricPrecision; image-rendering:optimizeQuality; fill-rule:evenodd; clip-rule:evenodd"
viewBox="0 0 4.54 4.32"
 xmlns:xlink="http://www.w3.org/1999/xlink">
 <defs>
  <style type="text/css">
   <![CDATA[
    .fil1 {fill:white}
    .fil0 {fill:white;fill-rule:nonzero}
   ]]>
  </style>
 </defs>
 <g id="Camada_x0020_1">
  <metadata id="CorelCorpID_0Corel-Layer"/>
  <g id="_2458266639712">
   <path class="fil0" d="M3.18 3.8l-0.34 0.19 -0.07 -0.12 0.34 -0.19 0.07 0.12zm-0.53 0.3l-0.38 0.21c-0.5,-0.29 -1.01,-0.57 -1.51,-0.85l0 -1.71 1.51 -0.85c0.5,0.28 1.01,0.57 1.51,0.85l0 1.71 -0.35 0.2 -0.07 -0.12 0.28 -0.16 0 -1.55 -1.37 -0.78 -1.37 0.78 0 1.55 1.37 0.78 0.31 -0.18 0.07 0.12z"/>
   <polygon class="fil0" points="2.2,2.61 2.2,0.2 2.34,0.2 2.34,2.61 "/>
   <polygon class="fil1" points="2.27,0 2.39,0.13 2.5,0.26 2.27,0.26 2.05,0.26 2.16,0.13 "/>
   <polygon class="fil0" points="2.31,2.55 4.4,3.73 4.34,3.85 2.24,2.67 "/>
   <polygon class="fil1" points="4.54,3.89 4.37,3.92 4.2,3.95 4.31,3.76 4.42,3.56 4.48,3.72 "/>
   <polygon class="fil0" points="2.31,2.67 0.21,3.85 0.14,3.73 2.24,2.55 "/>
   <polygon class="fil1" points="-0,3.89 0.17,3.92 0.34,3.95 0.23,3.76 0.12,3.56 0.06,3.72 "/>
  </g>
 </g>
</svg>
