<svg id="Layer_1" data-name="Layer 1" xmlns="http://www.w3.org/2000/svg" viewBox="0 0 24.73 31.93"><title>vite</title><path d="M28.61,26.9H13.68V24.17H26.19c-.53-.61-1-1.13-1.45-1.64l-6.83-7.71a.84.84,0,0,1-.19-.5c0-.52,0-1,0-1.56A1.06,1.06,0,0,1,18,12Q22,7.48,26,3l.19-.23H13.68V0h14.9a1.9,1.9,0,0,1,0,.25c0,1.31,0,2.63,0,4a.9.9,0,0,1-.25.55C26.19,7.16,24,9.53,21.87,11.9l-1.42,1.56,2.65,2.92c1.78,2,3.56,3.91,5.34,5.88a.52.52,0,0,1,.16.32C28.61,24,28.61,25.44,28.61,26.9Z" transform="translate(-3.88 -0.03)"/><path d="M12,18.52c-1.19-1.31-2.36-2.59-3.52-3.88C7,13,5.53,11.38,4.05,9.74a.52.52,0,0,1-.16-.31c0-1.44,0-2.87,0-4.33h14.9V7.83H6.29L7.65,9.37q3.45,3.89,6.89,7.76a1.07,1.07,0,0,1,.21.57c0,.48,0,1,0,1.45a1.28,1.28,0,0,1-.39,1q-4,4.43-7.91,8.89l-.14.18H18.79V32H3.88V31c0-1,0-2,0-3a1.15,1.15,0,0,1,.35-.87l7.62-8.38Z" transform="translate(-3.88 -0.03)"/><path d="M17.59,16.08a1.44,1.44,0,0,1-1.46,1.43,1.44,1.44,0,1,1,1.46-1.43Z" transform="translate(-3.88 -0.03)"/></svg>